<?xml version="1.0" standalone="no"?>
<!DOCTYPE svg PUBLIC "-//W3C//DTD SVG 20010904//EN"
 "http://www.w3.org/TR/2001/REC-SVG-20010904/DTD/svg10.dtd">
<svg version="1.0" xmlns="http://www.w3.org/2000/svg"
 width="50px" height="50px" viewBox="0 0 1920.000000 1920.000000"
 preserveAspectRatio="xMidYMid meet">

<g transform="translate(0.000000,1920.000000) scale(0.100000,-0.100000)"
fill="#000000" stroke="none">
<path d="M0 9600 l0 -9600 9600 0 9600 0 0 9600 0 9600 -9600 0 -9600 0 0
-9600z m11405 5990 c684 -46 1281 -309 1746 -770 589 -584 938 -1454 1011
-2521 l12 -177 80 -63 c108 -85 349 -321 448 -439 87 -103 218 -282 218 -296
-1 -5 -186 -121 -413 -259 l-412 -250 -13 -70 c-58 -315 -100 -512 -147 -700
-30 -121 -55 -223 -55 -227 0 -5 343 -8 763 -8 l762 0 -12 -407 c-15 -532 -40
-716 -139 -1025 -298 -925 -1038 -1645 -2004 -1952 -342 -108 -652 -156 -1014
-156 l-193 0 -110 -132 c-386 -465 -830 -904 -1269 -1255 -789 -629 -1632
-1050 -2419 -1208 -302 -61 -389 -69 -720 -70 -323 0 -387 6 -635 57 -861 177
-1560 758 -1955 1627 -57 124 -145 350 -145 368 0 5 29 -48 64 -117 396 -786
1054 -1275 1896 -1405 142 -23 514 -31 677 -16 1074 101 2222 716 3238 1736
427 429 779 861 1123 1383 86 130 118 172 130 168 10 -3 73 -10 142 -17 215
-20 466 2 689 62 619 165 1133 630 1327 1203 13 38 24 71 24 73 0 2 -337 3
-750 3 -549 0 -750 3 -750 11 0 6 33 95 74 198 399 1004 590 2024 555 2959
-62 1629 -822 2776 -2044 3082 -214 54 -349 72 -591 77 -412 10 -784 -49
-1223 -196 -732 -245 -1526 -742 -2173 -1360 -60 -57 -108 -100 -108 -96 0 15
298 319 462 472 349 324 622 544 964 776 897 608 1807 932 2659 945 44 1 148
-3 230 -8z m1190 -2840 c157 -18 295 -43 304 -54 12 -15 58 -275 76 -436 21
-189 39 -599 31 -702 l-8 -86 -61 28 c-105 47 -276 97 -412 121 -232 39 -535
27 -768 -32 -468 -118 -927 -449 -1211 -874 -353 -527 -462 -1161 -300 -1754
181 -662 672 -1209 1307 -1456 53 -21 97 -43 97 -48 0 -15 -225 -343 -360
-522 -149 -199 -307 -394 -324 -401 -30 -12 -364 166 -556 296 -178 121 -322
241 -480 400 -170 169 -286 311 -415 505 -458 693 -628 1461 -504 2282 77 513
312 1053 645 1484 535 692 1379 1167 2220 1249 60 5 125 12 144 14 62 7 482
-3 575 -14z m-5720 -100 c619 -57 1138 -325 1475 -761 247 -320 391 -684 440
-1117 18 -156 8 -535 -19 -687 -119 -685 -527 -1236 -1128 -1526 -56 -27 -107
-49 -112 -49 -5 0 -13 -5 -16 -10 -4 -6 157 -230 357 -498 362 -484 761 -1024
1041 -1407 l146 -200 -711 -3 c-525 -1 -714 1 -725 9 -51 43 -849 1134 -1318
1804 -66 94 -124 173 -130 177 -5 4 -273 7 -595 5 l-585 -2 -3 -997 -2 -998
-600 0 -600 0 0 3135 0 3135 1488 0 c928 0 1528 -4 1597 -10z m5833 -2907
c-68 -235 -195 -591 -305 -856 l-66 -157 -274 2 -274 3 -259 538 -258 537 728
0 728 0 -20 -67z"/>
<path d="M4997 11593 c-4 -3 -7 -487 -7 -1075 l0 -1069 903 3 902 4 88 26
c279 84 478 251 609 513 85 169 113 320 105 564 -9 246 -38 375 -128 556 -61
124 -130 210 -237 296 -135 108 -262 159 -452 179 -105 11 -1773 14 -1783 3z"/>
</g>
</svg>
